<svg width="315" height="228" viewBox="0 0 315 228" fill="none" xmlns="http://www.w3.org/2000/svg">
<rect width="315" height="228" fill="#C4C4C4"/>
<path d="M122.504 114.197C121.539 113.92 120.836 113.58 120.395 113.178C119.957 112.771 119.738 112.271 119.738 111.678C119.738 111.006 120.006 110.451 120.541 110.014C121.08 109.572 121.779 109.352 122.639 109.352C123.225 109.352 123.746 109.465 124.203 109.691C124.664 109.918 125.02 110.23 125.27 110.629C125.523 111.027 125.65 111.463 125.65 111.936H124.52C124.52 111.42 124.355 111.016 124.027 110.723C123.699 110.426 123.236 110.277 122.639 110.277C122.084 110.277 121.65 110.4 121.338 110.646C121.029 110.889 120.875 111.227 120.875 111.66C120.875 112.008 121.021 112.303 121.314 112.545C121.611 112.783 122.113 113.002 122.82 113.201C123.531 113.4 124.086 113.621 124.484 113.863C124.887 114.102 125.184 114.381 125.375 114.701C125.57 115.021 125.668 115.398 125.668 115.832C125.668 116.523 125.398 117.078 124.859 117.496C124.32 117.91 123.6 118.117 122.697 118.117C122.111 118.117 121.564 118.006 121.057 117.783C120.549 117.557 120.156 117.248 119.879 116.857C119.605 116.467 119.469 116.023 119.469 115.527H120.6C120.6 116.043 120.789 116.451 121.168 116.752C121.551 117.049 122.061 117.197 122.697 117.197C123.291 117.197 123.746 117.076 124.062 116.834C124.379 116.592 124.537 116.262 124.537 115.844C124.537 115.426 124.391 115.104 124.098 114.877C123.805 114.646 123.273 114.42 122.504 114.197ZM130.859 118C130.797 117.875 130.746 117.652 130.707 117.332C130.203 117.855 129.602 118.117 128.902 118.117C128.277 118.117 127.764 117.941 127.361 117.59C126.963 117.234 126.764 116.785 126.764 116.242C126.764 115.582 127.014 115.07 127.514 114.707C128.018 114.34 128.725 114.156 129.635 114.156H130.689V113.658C130.689 113.279 130.576 112.979 130.35 112.756C130.123 112.529 129.789 112.416 129.348 112.416C128.961 112.416 128.637 112.514 128.375 112.709C128.113 112.904 127.982 113.141 127.982 113.418H126.893C126.893 113.102 127.004 112.797 127.227 112.504C127.453 112.207 127.758 111.973 128.141 111.801C128.527 111.629 128.951 111.543 129.412 111.543C130.143 111.543 130.715 111.727 131.129 112.094C131.543 112.457 131.758 112.959 131.773 113.6V116.518C131.773 117.1 131.848 117.562 131.996 117.906V118H130.859ZM129.061 117.174C129.4 117.174 129.723 117.086 130.027 116.91C130.332 116.734 130.553 116.506 130.689 116.225V114.924H129.84C128.512 114.924 127.848 115.312 127.848 116.09C127.848 116.43 127.961 116.695 128.188 116.887C128.414 117.078 128.705 117.174 129.061 117.174ZM134.492 111.66L134.521 112.363C134.986 111.816 135.613 111.543 136.402 111.543C137.289 111.543 137.893 111.883 138.213 112.562C138.424 112.258 138.697 112.012 139.033 111.824C139.373 111.637 139.773 111.543 140.234 111.543C141.625 111.543 142.332 112.279 142.355 113.752V118H141.271V113.816C141.271 113.363 141.168 113.025 140.961 112.803C140.754 112.576 140.406 112.463 139.918 112.463C139.516 112.463 139.182 112.584 138.916 112.826C138.65 113.064 138.496 113.387 138.453 113.793V118H137.363V113.846C137.363 112.924 136.912 112.463 136.01 112.463C135.299 112.463 134.812 112.766 134.551 113.371V118H133.467V111.66H134.492ZM149.352 114.9C149.352 115.865 149.131 116.643 148.689 117.232C148.248 117.822 147.65 118.117 146.896 118.117C146.127 118.117 145.521 117.873 145.08 117.385V120.438H143.996V111.66H144.986L145.039 112.363C145.48 111.816 146.094 111.543 146.879 111.543C147.641 111.543 148.242 111.83 148.684 112.404C149.129 112.979 149.352 113.777 149.352 114.801V114.9ZM148.268 114.777C148.268 114.062 148.115 113.498 147.811 113.084C147.506 112.67 147.088 112.463 146.557 112.463C145.9 112.463 145.408 112.754 145.08 113.336V116.365C145.404 116.943 145.9 117.232 146.568 117.232C147.088 117.232 147.5 117.027 147.805 116.617C148.113 116.203 148.268 115.59 148.268 114.777ZM151.912 118H150.828V109H151.912V118ZM156.283 118.117C155.424 118.117 154.725 117.836 154.186 117.273C153.646 116.707 153.377 115.951 153.377 115.006V114.807C153.377 114.178 153.496 113.617 153.734 113.125C153.977 112.629 154.312 112.242 154.742 111.965C155.176 111.684 155.645 111.543 156.148 111.543C156.973 111.543 157.613 111.814 158.07 112.357C158.527 112.9 158.756 113.678 158.756 114.689V115.141H154.461C154.477 115.766 154.658 116.271 155.006 116.658C155.357 117.041 155.803 117.232 156.342 117.232C156.725 117.232 157.049 117.154 157.314 116.998C157.58 116.842 157.812 116.635 158.012 116.377L158.674 116.893C158.143 117.709 157.346 118.117 156.283 118.117ZM156.148 112.434C155.711 112.434 155.344 112.594 155.047 112.914C154.75 113.23 154.566 113.676 154.496 114.25H157.672V114.168C157.641 113.617 157.492 113.191 157.227 112.891C156.961 112.586 156.602 112.434 156.148 112.434ZM164.369 118H163.244V109.469H164.369V118ZM167.281 111.66L167.311 112.363C167.775 111.816 168.402 111.543 169.191 111.543C170.078 111.543 170.682 111.883 171.002 112.562C171.213 112.258 171.486 112.012 171.822 111.824C172.162 111.637 172.562 111.543 173.023 111.543C174.414 111.543 175.121 112.279 175.145 113.752V118H174.061V113.816C174.061 113.363 173.957 113.025 173.75 112.803C173.543 112.576 173.195 112.463 172.707 112.463C172.305 112.463 171.971 112.584 171.705 112.826C171.439 113.064 171.285 113.387 171.242 113.793V118H170.152V113.846C170.152 112.924 169.701 112.463 168.799 112.463C168.088 112.463 167.602 112.766 167.34 113.371V118H166.256V111.66H167.281ZM180.699 118C180.637 117.875 180.586 117.652 180.547 117.332C180.043 117.855 179.441 118.117 178.742 118.117C178.117 118.117 177.604 117.941 177.201 117.59C176.803 117.234 176.604 116.785 176.604 116.242C176.604 115.582 176.854 115.07 177.354 114.707C177.857 114.34 178.564 114.156 179.475 114.156H180.529V113.658C180.529 113.279 180.416 112.979 180.189 112.756C179.963 112.529 179.629 112.416 179.188 112.416C178.801 112.416 178.477 112.514 178.215 112.709C177.953 112.904 177.822 113.141 177.822 113.418H176.732C176.732 113.102 176.844 112.797 177.066 112.504C177.293 112.207 177.598 111.973 177.98 111.801C178.367 111.629 178.791 111.543 179.252 111.543C179.982 111.543 180.555 111.727 180.969 112.094C181.383 112.457 181.598 112.959 181.613 113.6V116.518C181.613 117.1 181.688 117.562 181.836 117.906V118H180.699ZM178.9 117.174C179.24 117.174 179.562 117.086 179.867 116.91C180.172 116.734 180.393 116.506 180.529 116.225V114.924H179.68C178.352 114.924 177.688 115.312 177.688 116.09C177.688 116.43 177.801 116.695 178.027 116.887C178.254 117.078 178.545 117.174 178.9 117.174ZM183.055 114.777C183.055 113.789 183.283 113.004 183.74 112.422C184.197 111.836 184.803 111.543 185.557 111.543C186.33 111.543 186.934 111.816 187.367 112.363L187.42 111.66H188.41V117.848C188.41 118.668 188.166 119.314 187.678 119.787C187.193 120.26 186.541 120.496 185.721 120.496C185.264 120.496 184.816 120.398 184.379 120.203C183.941 120.008 183.607 119.74 183.377 119.4L183.939 118.75C184.404 119.324 184.973 119.611 185.645 119.611C186.172 119.611 186.582 119.463 186.875 119.166C187.172 118.869 187.32 118.451 187.32 117.912V117.367C186.887 117.867 186.295 118.117 185.545 118.117C184.803 118.117 184.201 117.818 183.74 117.221C183.283 116.623 183.055 115.809 183.055 114.777ZM184.145 114.9C184.145 115.615 184.291 116.178 184.584 116.588C184.877 116.994 185.287 117.197 185.814 117.197C186.498 117.197 187 116.887 187.32 116.266V113.371C186.988 112.766 186.49 112.463 185.826 112.463C185.299 112.463 184.887 112.668 184.59 113.078C184.293 113.488 184.145 114.096 184.145 114.9ZM192.682 118.117C191.822 118.117 191.123 117.836 190.584 117.273C190.045 116.707 189.775 115.951 189.775 115.006V114.807C189.775 114.178 189.895 113.617 190.133 113.125C190.375 112.629 190.711 112.242 191.141 111.965C191.574 111.684 192.043 111.543 192.547 111.543C193.371 111.543 194.012 111.814 194.469 112.357C194.926 112.9 195.154 113.678 195.154 114.689V115.141H190.859C190.875 115.766 191.057 116.271 191.404 116.658C191.756 117.041 192.201 117.232 192.74 117.232C193.123 117.232 193.447 117.154 193.713 116.998C193.979 116.842 194.211 116.635 194.41 116.377L195.072 116.893C194.541 117.709 193.744 118.117 192.682 118.117ZM192.547 112.434C192.109 112.434 191.742 112.594 191.445 112.914C191.148 113.23 190.965 113.676 190.895 114.25H194.07V114.168C194.039 113.617 193.891 113.191 193.625 112.891C193.359 112.586 193 112.434 192.547 112.434Z" fill="black"/>
</svg>
