<?xml version="1.0" standalone="no"?>
<!DOCTYPE svg PUBLIC "-//W3C//DTD SVG 20010904//EN"
 "http://www.w3.org/TR/2001/REC-SVG-20010904/DTD/svg10.dtd">
<svg version="1.0" xmlns="http://www.w3.org/2000/svg"
 width="700.000000pt" height="700.000000pt" viewBox="0 0 700.000000 700.000000"
 preserveAspectRatio="xMidYMid meet">
<metadata>
Created by potrace 1.11, written by Peter Selinger 2001-2013
</metadata>
<g transform="translate(0.000000,700.000000) scale(0.100000,-0.100000)"
fill="#000000" stroke="none">
<path d="M1985 6982 c-62 -38 -69 -62 -70 -219 0 -78 -3 -144 -5 -146 -3 -2
-41 -23 -85 -47 -218 -118 -403 -248 -629 -440 -252 -214 -542 -569 -723 -885
-87 -151 -113 -205 -218 -450 -52 -121 -129 -373 -164 -537 -33 -156 -55 -293
-68 -433 -15 -166 -7 -703 12 -735 1 -3 5 -33 9 -66 3 -34 17 -118 31 -185
136 -690 455 -1289 950 -1785 171 -171 229 -223 385 -340 282 -212 670 -416
975 -514 22 -7 57 -28 78 -46 128 -108 326 -156 491 -117 37 9 80 12 111 8 53
-7 89 -10 195 -19 77 -7 386 -8 450 -2 25 2 81 7 125 10 44 4 91 8 105 11 14
2 43 6 65 9 22 2 65 10 95 16 30 6 69 13 85 16 17 3 57 11 90 17 l60 13 55
-38 c121 -83 288 -100 410 -42 74 36 131 86 183 162 34 50 77 148 77 176 0 7
12 18 27 25 81 37 452 265 473 291 3 3 34 28 70 55 485 366 886 900 1120 1489
99 250 165 512 215 846 27 179 27 708 1 845 -2 11 -7 43 -10 70 -6 45 -17 112
-31 185 -39 209 -130 505 -215 700 -151 348 -335 638 -595 940 -52 60 -267
273 -331 328 -140 119 -351 272 -484 352 -90 53 -226 125 -325 171 l-115 54
-1 55 c0 48 -6 190 -8 213 -2 15 -119 -74 -171 -129 -47 -49 -53 -53 -78 -43
-100 38 -365 103 -522 129 -36 5 -76 12 -90 15 -14 2 -50 6 -80 9 -30 3 -86 9
-125 13 -70 7 -412 9 -555 4 -41 -2 -94 0 -116 4 -32 5 -51 2 -80 -13 -38 -19
-63 -25 -149 -37 -22 -4 -53 -10 -70 -15 -16 -4 -51 -11 -76 -15 -44 -5 -47
-4 -58 22 -15 36 -42 53 -97 60 -76 9 -144 -54 -144 -134 0 -26 -5 -31 -42
-43 -24 -8 -83 -29 -131 -47 -49 -18 -89 -33 -90 -33 -1 0 -2 33 -1 72 0 96
-3 111 -34 147 -36 41 -111 52 -157 23z"/>
</g>
</svg>
