<svg id="Layer_1" xmlns="http://www.w3.org/2000/svg" xmlns:xlink="http://www.w3.org/1999/xlink" viewBox="0 0 20 20"><style>.st0{clip-path:url(#SVGID_2_)}.st6{clip-path:url(#SVGID_14_)}</style><defs><path id="SVGID_1_" d="M10 .3l2.8 7.5h7l-5.9 4.4 2.8 7.4-6.7-5-6.7 5 2.8-7.4L.2 7.8h7z"/></defs><clipPath id="SVGID_2_"><use xlink:href="#SVGID_1_" overflow="visible"/></clipPath><g class="st0"><defs><path id="SVGID_3_" d="M10 .3l2.8 7.5h7l-5.9 4.4 2.8 7.4-6.7-5-6.7 5 2.8-7.4L.2 7.8h7z"/></defs><clipPath id="SVGID_4_"><use xlink:href="#SVGID_3_" overflow="visible"/></clipPath><g clip-path="url(#SVGID_4_)"><defs><path id="SVGID_5_" d="M-820-730.8H620v1757H-820z"/></defs><clipPath id="SVGID_6_"><use xlink:href="#SVGID_5_" overflow="visible"/></clipPath><path clip-path="url(#SVGID_6_)" fill="none" stroke="#002b56" stroke-width="2" stroke-miterlimit="10" d="M10 .3l2.8 7.5h7l-5.9 4.4 2.8 7.4-6.7-5-6.7 5 2.8-7.4L.2 7.8h7z"/></g></g><g class="st0"><defs><path id="SVGID_7_" d="M10 .3l2.8 7.5h7l-5.9 4.4 2.8 7.4-6.7-5-6.7 5 2.8-7.4L.2 7.8h7z"/></defs><clipPath id="SVGID_8_"><use xlink:href="#SVGID_7_" overflow="visible"/></clipPath><g clip-path="url(#SVGID_8_)"><defs><path id="SVGID_9_" d="M-799-730.8H641v1757H-799z"/></defs><clipPath id="SVGID_10_"><use xlink:href="#SVGID_9_" overflow="visible"/></clipPath><path clip-path="url(#SVGID_10_)" fill="none" stroke="#002b56" stroke-width="2" stroke-miterlimit="10" d="M10 .3l2.8 7.5h7l-5.9 4.4 2.8 7.4-6.7-5-6.7 5 2.8-7.4L.2 7.8h7z"/></g></g><g class="st0"><defs><path id="SVGID_11_" d="M-799-730.8H641v1757H-799z"/></defs><clipPath id="SVGID_12_"><use xlink:href="#SVGID_11_" overflow="visible"/></clipPath><g clip-path="url(#SVGID_12_)"><defs><path id="SVGID_13_" d="M0 .2h20v20H0z"/></defs><clipPath id="SVGID_14_"><use xlink:href="#SVGID_13_" overflow="visible"/></clipPath><g class="st6"><defs><path id="SVGID_15_" d="M10 .3l2.8 7.5h7l-5.9 4.4 2.8 7.4-6.7-5-6.7 5 2.8-7.4L.2 7.8h7z"/></defs><clipPath id="SVGID_16_"><use xlink:href="#SVGID_15_" overflow="visible"/></clipPath><g clip-path="url(#SVGID_16_)"><defs><path id="SVGID_17_" d="M0 .2h20v20H0z"/></defs><clipPath id="SVGID_18_"><use xlink:href="#SVGID_17_" overflow="visible"/></clipPath><path clip-path="url(#SVGID_18_)" fill="none" stroke="#002b56" stroke-width="2" stroke-miterlimit="10" d="M10 .3l2.8 7.5h7l-5.9 4.4 2.8 7.4-6.7-5-6.7 5 2.8-7.4L.2 7.8h7z"/></g></g><g class="st6"><defs><path id="SVGID_19_" d="M0 .2h10v20H0z"/></defs><clipPath id="SVGID_20_"><use xlink:href="#SVGID_19_" overflow="visible"/></clipPath><g clip-path="url(#SVGID_20_)"><defs><path id="SVGID_21_" d="M0 .2h20v20H0z"/></defs><clipPath id="SVGID_22_"><use xlink:href="#SVGID_21_" overflow="visible"/></clipPath></g></g></g></g><path fill="#002b56" d="M10 3v10.5l-5 3.7 2-5-5-4h6z"/></svg>